<svg xmlns="http://www.w3.org/2000/svg" xmlns:xlink="http://www.w3.org/1999/xlink" preserveAspectRatio="xMidYMid" width="387.344" height="414.81" viewBox="0 0 387.344 414.81">
  <defs>
    <style>
      .cls-1 {
        fill: #fff;
        fill-rule: evenodd;
      }
    </style>
  </defs>
  <path d="M361.523,248.884 L330.215,248.884 C327.199,260.290 323.039,271.165 317.759,281.312 L339.710,304.820 C349.847,315.677 349.847,333.279 339.710,344.135 L321.356,363.791 C311.218,374.647 294.783,374.647 284.645,363.791 L262.693,340.282 C253.217,345.937 243.062,350.393 232.411,353.623 L232.411,387.150 C232.411,402.423 220.851,414.803 206.588,414.803 L180.766,414.803 C166.504,414.803 154.943,402.423 154.943,387.150 L154.943,353.623 C143.906,350.276 133.424,345.573 123.656,339.628 L101.093,363.791 C90.956,374.647 74.520,374.647 64.383,363.791 L46.027,344.135 C35.890,333.279 35.890,315.677 46.027,304.820 L68.985,280.235 C63.969,270.406 60.047,259.876 57.139,248.884 L25.832,248.884 C11.569,248.884 0.009,236.502 0.009,221.230 L0.009,193.576 C0.009,178.303 11.569,165.924 25.832,165.924 L57.139,165.924 C60.156,154.518 64.315,143.641 69.596,133.493 L46.027,108.255 C35.890,97.399 35.890,79.798 46.027,68.941 L64.383,49.285 C74.520,38.428 90.956,38.428 101.093,49.285 L124.661,74.525 C134.137,68.868 144.292,64.414 154.943,61.183 L154.943,27.657 C154.943,12.383 166.504,0.002 180.766,0.002 L206.588,0.002 C220.851,0.002 232.411,12.383 232.411,27.657 L232.411,61.183 C242.676,64.298 252.509,68.498 261.687,73.871 L284.645,49.285 C294.783,38.428 311.218,38.428 321.356,49.285 L339.710,68.941 C349.847,79.798 349.847,97.399 339.710,108.255 L317.147,132.417 C322.699,142.878 327.089,154.103 330.215,165.924 L361.523,165.924 C375.786,165.924 387.346,178.303 387.346,193.576 L387.346,221.230 C387.346,236.502 375.786,248.884 361.523,248.884 ZM193.677,124.443 C150.892,124.443 116.209,161.586 116.209,207.404 C116.209,253.221 150.892,290.363 193.677,290.363 C236.462,290.363 271.144,253.221 271.144,207.404 C271.144,161.586 236.462,124.443 193.677,124.443 ZM193.677,248.884 C172.285,248.884 154.943,230.311 154.943,207.404 C154.943,184.495 172.285,165.924 193.677,165.924 C215.070,165.924 232.411,184.495 232.411,207.404 C232.411,230.311 215.070,248.884 193.677,248.884 Z" class="cls-1"/>
</svg>
